<svg width="2273" height="2273" viewBox="0 0 2273 2273" fill="none" xmlns="http://www.w3.org/2000/svg">
<path d="M441.5 963.25H1827.5V1078.75H441.5V963.25ZM1307.75 1829.5C1307.75 1957.01 1262.01 2060.5 1134.5 2060.5C1006.93 2060.5 961.25 1957.01 961.25 1829.5C961.25 1701.99 1006.93 1714 1134.5 1714C1262.01 1714 1307.75 1701.99 1307.75 1829.5Z" fill="#292F33"/>
<path d="M1134.5 1887.25C751.791 1887.25 557 1964.81 557 2060.5V2176H1712V2060.5C1712 1964.81 1517.21 1887.25 1134.5 1887.25Z" fill="#66757F"/>
<path d="M1134.5 97C847.425 97 614.75 329.675 614.75 616.75V1021H1654.25V616.75C1654.25 329.675 1421.58 97 1134.5 97Z" fill="#99AAB5"/>
<path d="M990.125 328C1037.97 328 1076.75 289.217 1076.75 241.375C1076.75 193.533 1037.97 154.75 990.125 154.75C942.283 154.75 903.5 193.533 903.5 241.375C903.5 289.217 942.283 328 990.125 328Z" fill="#292F33"/>
<path d="M1278.88 328C1326.72 328 1365.5 289.217 1365.5 241.375C1365.5 193.533 1326.72 154.75 1278.88 154.75C1231.03 154.75 1192.25 193.533 1192.25 241.375C1192.25 289.217 1231.03 328 1278.88 328Z" fill="#292F33"/>
<path d="M1105.62 559C1153.47 559 1192.25 520.217 1192.25 472.375C1192.25 424.533 1153.47 385.75 1105.62 385.75C1057.78 385.75 1019 424.533 1019 472.375C1019 520.217 1057.78 559 1105.62 559Z" fill="#292F33"/>
<path d="M1394.38 559C1442.22 559 1481 520.217 1481 472.375C1481 424.533 1442.22 385.75 1394.38 385.75C1346.53 385.75 1307.75 424.533 1307.75 472.375C1307.75 520.217 1346.53 559 1394.38 559Z" fill="#292F33"/>
<path d="M816.875 559C864.717 559 903.5 520.217 903.5 472.375C903.5 424.533 864.717 385.75 816.875 385.75C769.033 385.75 730.25 424.533 730.25 472.375C730.25 520.217 769.033 559 816.875 559Z" fill="#292F33"/>
<path d="M990.125 790C1037.97 790 1076.75 751.217 1076.75 703.375C1076.75 655.533 1037.97 616.75 990.125 616.75C942.283 616.75 903.5 655.533 903.5 703.375C903.5 751.217 942.283 790 990.125 790Z" fill="#292F33"/>
<path d="M701.375 790C749.217 790 788 751.217 788 703.375C788 655.533 749.217 616.75 701.375 616.75C653.533 616.75 614.75 655.533 614.75 703.375C614.75 751.217 653.533 790 701.375 790Z" fill="#292F33"/>
<path d="M1278.88 790C1326.72 790 1365.5 751.217 1365.5 703.375C1365.5 655.533 1326.72 616.75 1278.88 616.75C1231.03 616.75 1192.25 655.533 1192.25 703.375C1192.25 751.217 1231.03 790 1278.88 790Z" fill="#292F33"/>
<path d="M1567.62 790C1615.47 790 1654.25 751.217 1654.25 703.375C1654.25 655.533 1615.47 616.75 1567.62 616.75C1519.78 616.75 1481 655.533 1481 703.375C1481 751.217 1519.78 790 1567.62 790Z" fill="#292F33"/>
<path d="M1105.62 1021C1153.47 1021 1192.25 982.217 1192.25 934.375C1192.25 886.533 1153.47 847.75 1105.62 847.75C1057.78 847.75 1019 886.533 1019 934.375C1019 982.217 1057.78 1021 1105.62 1021Z" fill="#292F33"/>
<path d="M1394.38 1021C1442.22 1021 1481 982.217 1481 934.375C1481 886.533 1442.22 847.75 1394.38 847.75C1346.53 847.75 1307.75 886.533 1307.75 934.375C1307.75 982.217 1346.53 1021 1394.38 1021Z" fill="#292F33"/>
<path d="M816.875 1021C864.717 1021 903.5 982.217 903.5 934.375C903.5 886.533 864.717 847.75 816.875 847.75C769.033 847.75 730.25 886.533 730.25 934.375C730.25 982.217 769.033 1021 816.875 1021Z" fill="#292F33"/>
<path d="M614.75 966.831V1078.75C614.75 1365.83 847.425 1598.5 1134.5 1598.5C1421.58 1598.5 1654.25 1365.83 1654.25 1078.75V966.831H614.75Z" fill="#66757F"/>
<path d="M1827.5 905.5C1795.56 905.5 1769.75 931.372 1769.75 963.25V1078.75C1769.75 1429.52 1485.33 1714 1134.5 1714C783.669 1714 499.25 1429.52 499.25 1078.75V963.25C499.25 931.372 473.378 905.5 441.5 905.5C409.622 905.5 383.75 931.372 383.75 963.25V1078.75C383.75 1493.39 719.855 1829.5 1134.5 1829.5C1549.15 1829.5 1885.25 1493.39 1885.25 1078.75V963.25C1885.25 931.372 1859.44 905.5 1827.5 905.5Z" fill="#66757F"/>
<rect x="1827.5" y="555.5" width="361" height="1004" rx="180.5" stroke="#66757F" stroke-width="115"/>
<path fill-rule="evenodd" clip-rule="evenodd" d="M342.933 526.531C394.618 555.956 435.906 605.485 460.13 678.542C487.334 748.794 495.981 848.221 498.774 924.114C500.227 963.616 500.145 999.13 499.702 1024.77C499.481 1037.6 499.168 1048.02 498.907 1055.28C498.777 1058.91 498.66 1061.76 498.574 1063.73C498.531 1064.71 498.495 1065.48 498.47 1066.02L498.454 1066.35L498.439 1066.65L498.427 1066.89L498.426 1066.91C498.426 1066.92 498.426 1066.93 441 1064C383.575 1061.07 383.574 1061.08 383.574 1061.08L383.578 1061C383.583 1060.91 383.59 1060.77 383.599 1060.57C383.618 1060.17 383.647 1059.54 383.684 1058.7C383.758 1057.02 383.863 1054.47 383.981 1051.16C384.219 1044.53 384.512 1034.83 384.72 1022.78C385.136 998.637 385.21 965.266 383.851 928.344C381.041 851.972 372.299 769.344 352.5 719.07L351.873 717.478L351.342 715.852C334.991 665.79 310.379 640.329 286.036 626.469C260.381 611.863 228.966 606.763 194.939 608.431C161.026 610.093 128.097 618.326 102.945 626.612C93.1894 629.826 84.876 632.957 78.4547 635.537C80.279 628.538 81.25 621.195 81.25 613.625C81.25 576.824 58.3015 545.383 25.9341 532.831C26.9704 532.387 28.0671 531.921 29.2224 531.437C38.3635 527.606 51.275 522.554 66.9617 517.387C97.9657 507.173 141.599 495.907 189.311 493.569C236.909 491.236 292.181 497.636 342.933 526.531Z" fill="#66757F"/>
</svg>
